<svg width="118" height="48" viewBox="0 0 118 48" fill="none" xmlns="http://www.w3.org/2000/svg">
<g clip-path="url(#clip0_131_20580)">
<path d="M21.7388 0H9.91581C4.43956 0 0 4.4 0 9.82745V28.182C0 30.4973 1.19496 32.5349 3.00719 33.7239V35.2957C3.00719 42.3137 8.74617 48.0016 15.8273 48.0016C22.9084 48.0016 28.6474 42.3137 28.6474 35.2957V33.7239C30.4597 32.5349 31.6546 30.4973 31.6546 28.182V9.82745C31.6546 4.4 27.2151 0 21.7388 0ZM13.928 13.6078V9.75059H17.7266V13.6078C18.8883 14.2635 19.6718 15.5012 19.6718 16.9208C19.6718 19.0259 17.9498 20.731 15.8273 20.731C13.7049 20.731 11.9829 19.0243 11.9829 16.9208C11.9829 15.5012 12.7663 14.2635 13.928 13.6078ZM25.482 35.2941C25.482 40.571 21.1516 44.8627 15.8273 44.8627C10.503 44.8627 6.17265 40.571 6.17265 35.2941V32.1051C6.17265 30.5192 7.47524 29.2282 9.07538 29.2282H22.5808C24.181 29.2282 25.4836 30.5192 25.4836 32.1051V35.2941H25.482Z" fill="#FF4A4A"/>
<path d="M21.4094 36.742C20.8269 36.742 20.2682 36.5051 19.8662 36.0879L19.298 35.4981C18.6491 34.8236 17.7485 34.4424 16.8084 34.4424H14.8474C13.9072 34.4424 13.0083 34.8236 12.3578 35.4981L11.7896 36.0879C11.3875 36.5051 10.8288 36.742 10.2464 36.742H9.18121V39.2518H10.9855C12.1393 39.2518 13.2726 38.9647 14.2855 38.4173L15.8303 37.5812L17.375 38.4173C18.3864 38.9647 19.5212 39.2518 20.675 39.2518H22.4793V36.742H21.4141H21.4094Z" fill="#FF4A4A"/>
<path d="M46.9488 22.5272C45.3788 22.5272 44.0588 22.1789 42.9872 21.484C41.9157 20.7891 41.1608 19.8432 40.7239 18.6464L43.3956 17.0981C44.0144 18.6981 45.2284 19.4981 47.0406 19.4981C47.9159 19.4981 48.5569 19.3413 48.9652 19.0276C49.372 18.7138 49.5762 18.317 49.5762 17.8385C49.5762 17.2848 49.3277 16.855 48.8291 16.5491C48.3305 16.2432 47.4411 15.9091 46.1575 15.5515C45.4484 15.3429 44.8485 15.1327 44.3579 14.924C43.8672 14.7154 43.3766 14.4346 42.8859 14.0832C42.3953 13.7319 42.0218 13.2864 41.7654 12.7483C41.509 12.2103 41.3808 11.5813 41.3808 10.8644C41.3808 9.44324 41.8904 8.3107 42.9081 7.46521C43.9274 6.61971 45.1524 6.19775 46.5864 6.19775C47.8684 6.19775 48.9969 6.50834 49.9703 7.12952C50.9436 7.7507 51.7018 8.61344 52.2446 9.72089L49.6189 11.2236C48.9858 9.87775 47.9744 9.20481 46.5848 9.20481C45.9359 9.20481 45.4262 9.3507 45.0575 9.64246C44.6871 9.93422 44.5035 10.3123 44.5035 10.775C44.5035 11.2691 44.7108 11.6691 45.1255 11.975C45.5402 12.2825 46.3363 12.615 47.5139 12.9727C47.9966 13.1232 48.3622 13.2378 48.6123 13.3209C48.8608 13.4025 49.201 13.5311 49.6315 13.7021C50.0621 13.8746 50.3928 14.0346 50.6271 14.1852C50.8613 14.3342 51.1288 14.5366 51.4311 14.7907C51.7334 15.0448 51.9629 15.3068 52.1212 15.5766C52.2795 15.8464 52.4156 16.1711 52.5279 16.5523C52.6419 16.9334 52.6973 17.3491 52.6973 17.7978C52.6973 19.2487 52.1655 20.4001 51.1019 21.2534C50.0383 22.1068 48.6534 22.5319 46.9488 22.5319V22.5272Z" fill="#00154A"/>
<path d="M56.8172 17.7929C57.2097 19.1984 58.2733 19.9012 60.0095 19.9012C61.1254 19.9012 61.9706 19.5278 62.5451 18.7796L64.8986 20.1255C63.7812 21.7255 62.1367 22.5255 59.9636 22.5255C58.0929 22.5255 56.5908 21.9639 55.4592 20.8423C54.3275 19.7208 53.7609 18.3074 53.7609 16.6023C53.7609 14.8972 54.3196 13.5027 55.4355 12.3733C56.5513 11.2439 57.9852 10.6792 59.7357 10.6792C61.396 10.6792 62.7651 11.247 63.8445 12.3843C64.9239 13.5216 65.4636 14.927 65.4636 16.6023C65.4636 16.9757 65.4257 17.3725 65.3513 17.7914H56.8172V17.7929ZM56.7713 15.5498H62.5435C62.3773 14.7874 62.0339 14.218 61.5131 13.8447C60.9924 13.4714 60.4005 13.2831 59.7357 13.2831C58.9507 13.2831 58.3018 13.4808 57.789 13.8776C57.2762 14.2745 56.9359 14.8314 56.7697 15.5498H56.7713Z" fill="#00154A"/>
<path d="M72.2328 22.5269C70.5266 22.5269 69.1054 21.9591 67.9658 20.8218C66.8262 19.6846 66.2564 18.2791 66.2564 16.6038C66.2564 14.9285 66.8262 13.523 67.9658 12.3858C69.1054 11.2485 70.5266 10.6807 72.2328 10.6807C73.3344 10.6807 74.3379 10.9426 75.2432 11.4665C76.1485 11.9905 76.8354 12.6932 77.3023 13.5748L74.7889 15.0336C74.5626 14.5709 74.2192 14.2038 73.7586 13.934C73.298 13.6642 72.782 13.5309 72.2075 13.5309C71.3323 13.5309 70.6074 13.8195 70.0344 14.3952C69.4615 14.9709 69.175 15.7081 69.175 16.6054C69.175 17.5026 69.4615 18.2179 70.0344 18.7936C70.6074 19.3693 71.3323 19.6579 72.2075 19.6579C72.7963 19.6579 73.3202 19.5277 73.7807 19.2658C74.2413 19.0038 74.5848 18.6414 74.8111 18.1771L77.3466 19.6124C76.8481 20.4956 76.1469 21.2015 75.2416 21.7332C74.3363 22.2634 73.3328 22.5301 72.2312 22.5301L72.2328 22.5269Z" fill="#00154A"/>
<path d="M85.8825 10.9962H88.8027V22.2135H85.8825V20.957C85.1735 22.0033 84.0497 22.5272 82.5098 22.5272C81.2721 22.5272 80.2496 22.1162 79.4424 21.2927C78.6352 20.4707 78.2316 19.3335 78.2316 17.8825V10.9946H81.1518V17.5233C81.1518 18.2715 81.3559 18.844 81.7627 19.2393C82.1695 19.6362 82.7139 19.8338 83.3929 19.8338C84.1479 19.8338 84.7509 19.6017 85.2036 19.1389C85.6562 18.6746 85.8825 17.9797 85.8825 17.0527V10.9946V10.9962Z" fill="#00154A"/>
<path d="M93.8277 12.9257C94.0999 12.2073 94.5478 11.6692 95.1746 11.31C95.8013 10.9508 96.4993 10.772 97.2685 10.772V14.0018C96.3775 13.8967 95.5813 14.0771 94.8802 14.5398C94.179 15.0041 93.8277 15.7743 93.8277 16.8504V22.212H90.9075V10.9963H93.8277V12.9257V12.9257Z" fill="#00154A"/>
<path d="M100.437 17.7929C100.83 19.1984 101.893 19.9012 103.63 19.9012C104.745 19.9012 105.591 19.5278 106.165 18.7796L108.519 20.1255C107.401 21.7255 105.757 22.5255 103.584 22.5255C101.713 22.5255 100.211 21.9639 99.0792 20.8423C97.9475 19.7208 97.3809 18.3074 97.3809 16.6023C97.3809 14.8972 97.9396 13.5027 99.0554 12.3733C100.171 11.2439 101.605 10.6792 103.356 10.6792C105.016 10.6792 106.385 11.247 107.464 12.3843C108.544 13.5216 109.084 14.927 109.084 16.6023C109.084 16.9757 109.046 17.3725 108.971 17.7914H100.437V17.7929ZM100.391 15.5498H106.163C105.997 14.7874 105.654 14.218 105.133 13.8447C104.612 13.4714 104.02 13.2831 103.356 13.2831C102.571 13.2831 101.922 13.4808 101.409 13.8776C100.896 14.2745 100.556 14.8314 100.39 15.5498H100.391Z" fill="#00154A"/>
<path d="M46.9488 43.0604C45.3788 43.0604 44.0588 42.7121 42.9872 42.0172C41.9157 41.3223 41.1608 40.3764 40.7239 39.1796L43.3956 37.6313C44.0144 39.2313 45.2284 40.0313 47.0406 40.0313C47.9159 40.0313 48.5569 39.8745 48.9652 39.5608C49.372 39.247 49.5762 38.8502 49.5762 38.3717C49.5762 37.818 49.3277 37.3882 48.8291 37.0823C48.3305 36.7764 47.4411 36.4423 46.1575 36.0847C45.4484 35.8761 44.8485 35.6659 44.3579 35.4572C43.8672 35.2486 43.3766 34.9678 42.8859 34.6164C42.3953 34.2651 42.0218 33.8196 41.7654 33.2815C41.509 32.7435 41.3808 32.1145 41.3808 31.3976C41.3808 29.9764 41.8904 28.8439 42.9081 27.9984C43.9274 27.1529 45.1524 26.731 46.5864 26.731C47.8684 26.731 48.9969 27.0415 49.9703 27.6627C50.9436 28.2839 51.7018 29.1466 52.2446 30.2541L49.6189 31.7568C48.9858 30.411 47.9744 29.738 46.5848 29.738C45.9359 29.738 45.4262 29.8839 45.0575 30.1757C44.6871 30.4674 44.5035 30.8455 44.5035 31.3082C44.5035 31.8023 44.7108 32.2023 45.1255 32.5082C45.5402 32.8157 46.3363 33.1482 47.5139 33.5059C47.9966 33.6564 48.3622 33.771 48.6123 33.8541C48.8608 33.9357 49.201 34.0643 49.6315 34.2353C50.0621 34.4078 50.3928 34.5678 50.6271 34.7184C50.8613 34.8674 51.1288 35.0698 51.4311 35.3239C51.7334 35.578 51.9629 35.84 52.1212 36.1098C52.2795 36.3796 52.4156 36.7043 52.5279 37.0855C52.6419 37.4666 52.6973 37.8823 52.6973 38.331C52.6973 39.7819 52.1655 40.9333 51.1019 41.7866C50.0383 42.64 48.6534 43.0651 46.9488 43.0651V43.0604Z" fill="#00154A"/>
<path d="M59.7373 43.0606C58.0311 43.0606 56.6098 42.4928 55.4703 41.3555C54.3307 40.2183 53.7609 38.8128 53.7609 37.1375C53.7609 35.4622 54.3307 34.0567 55.4703 32.9195C56.6098 31.7822 58.0311 31.2144 59.7373 31.2144C60.8389 31.2144 61.8424 31.4763 62.7477 32.0002C63.653 32.5242 64.3399 33.2269 64.8068 34.1085L62.2934 35.5673C62.0671 35.1046 61.7236 34.7375 61.2631 34.4677C60.8025 34.1979 60.2865 34.0646 59.712 34.0646C58.8367 34.0646 58.1119 34.3532 57.5389 34.9289C56.966 35.5046 56.6779 36.2418 56.6779 37.1391C56.6779 38.0363 56.9644 38.7516 57.5389 39.3273C58.1119 39.903 58.8367 40.1916 59.712 40.1916C60.3008 40.1916 60.8247 40.0614 61.2852 39.7995C61.7458 39.5375 62.0893 39.1751 62.3156 38.7108L64.8511 40.1461C64.3526 41.0293 63.6514 41.7351 62.7461 42.2669C61.8408 42.7971 60.8373 43.0638 59.7357 43.0638L59.7373 43.0606Z" fill="#00154A"/>
<path d="M87.9651 41.3446C86.8033 42.4881 85.3852 43.0606 83.7091 43.0606C82.033 43.0606 80.6196 42.4881 79.4642 41.3446C78.3104 40.201 77.7327 38.7987 77.7327 37.1375C77.7327 35.4763 78.3104 34.0755 79.4642 32.9304C80.618 31.7853 82.033 31.2144 83.7091 31.2144C85.3852 31.2144 86.8018 31.7869 87.9651 32.9304C89.1268 34.074 89.7076 35.4763 89.7076 37.1375C89.7076 38.7987 89.1268 40.1995 87.9651 41.3446ZM81.5249 39.3587C82.1058 39.9422 82.8338 40.234 83.7091 40.234C84.5843 40.234 85.3156 39.9422 85.9043 39.3587C86.4931 38.7751 86.7875 38.0347 86.7875 37.1375C86.7875 36.2402 86.4931 35.4998 85.9043 34.9163C85.3156 34.3328 84.5843 34.041 83.7091 34.041C82.8338 34.041 82.1058 34.3328 81.5249 34.9163C80.9441 35.4998 80.6528 36.2402 80.6528 37.1375C80.6528 38.0347 80.9425 38.7751 81.5249 39.3587Z" fill="#00154A"/>
<path d="M100.846 41.3446C99.6838 42.4881 98.2657 43.0606 96.5896 43.0606C94.9135 43.0606 93.5001 42.4881 92.3447 41.3446C91.1909 40.201 90.6132 38.7987 90.6132 37.1375C90.6132 35.4763 91.1909 34.0755 92.3447 32.9304C93.4985 31.7853 94.9135 31.2144 96.5896 31.2144C98.2657 31.2144 99.6823 31.7869 100.846 32.9304C102.007 34.074 102.588 35.4763 102.588 37.1375C102.588 38.7987 102.007 40.1995 100.846 41.3446ZM94.4054 39.3587C94.9863 39.9422 95.7144 40.234 96.5896 40.234C97.4649 40.234 98.1961 39.9422 98.7849 39.3587C99.3736 38.7751 99.668 38.0347 99.668 37.1375C99.668 36.2402 99.3736 35.4998 98.7849 34.9163C98.1961 34.3328 97.4649 34.041 96.5896 34.041C95.7144 34.041 94.9863 34.3328 94.4054 34.9163C93.8246 35.4998 93.5334 36.2402 93.5334 37.1375C93.5334 38.0347 93.823 38.7751 94.4054 39.3587Z" fill="#00154A"/>
<path d="M111.711 34.7139C111.711 35.0135 111.91 35.2566 112.311 35.4433C112.711 35.6299 113.197 35.7946 113.77 35.9374C114.343 36.0801 114.918 36.259 115.491 36.4754C116.064 36.6919 116.551 37.0558 116.95 37.5641C117.35 38.0723 117.55 38.7076 117.55 39.4715C117.55 40.6229 117.116 41.5092 116.249 42.1303C115.381 42.7515 114.299 43.0621 113.001 43.0621C110.678 43.0621 109.092 42.1727 108.246 40.3923L110.782 38.979C111.114 39.9515 111.854 40.4378 113.001 40.4378C114.042 40.4378 114.563 40.1162 114.563 39.4731C114.563 39.1735 114.364 38.9303 113.963 38.7437C113.563 38.557 113.077 38.3892 112.504 38.2386C111.931 38.0895 111.357 37.9013 110.784 37.677C110.211 37.4527 109.723 37.0982 109.324 36.6119C108.924 36.1256 108.724 35.517 108.724 34.7829C108.724 33.677 109.136 32.8048 109.957 32.1695C110.78 31.5343 111.803 31.2158 113.025 31.2158C113.946 31.2158 114.783 31.4213 115.538 31.8323C116.293 32.2433 116.888 32.8299 117.327 33.5939L114.837 34.9397C114.475 34.1774 113.871 33.7962 113.026 33.7962C112.65 33.7962 112.336 33.8794 112.088 34.0425C111.839 34.2072 111.714 34.4315 111.714 34.7154L111.711 34.7139Z" fill="#00154A"/>
<path d="M75.1862 32.4486C74.379 31.6266 73.3566 31.2141 72.1189 31.2141C70.5789 31.2141 69.4551 31.738 68.7461 32.7842V27.0415L65.8259 27.9921V42.745H68.7461V36.687C68.7461 35.7599 68.9724 35.065 69.4251 34.6007C69.8777 34.138 70.4807 33.9058 71.2357 33.9058C71.9147 33.9058 72.4576 34.1035 72.8659 34.5003C73.2743 34.8972 73.4768 35.4682 73.4768 36.2164V42.745H76.397V35.8572C76.397 34.4062 75.9934 33.2705 75.1862 32.447V32.4486Z" fill="#00154A"/>
<path d="M104.082 27.9921V42.7466H107.002V27.0415L104.082 27.9921Z" fill="#00154A"/>
</g>
<defs>
<clipPath id="clip0_131_20580">
<rect width="117.551" height="48" fill="white"/>
</clipPath>
</defs>
</svg>
